<?xml version="1.0" standalone="no"?>
<!DOCTYPE svg PUBLIC "-//W3C//DTD SVG 20010904//EN"
 "http://www.w3.org/TR/2001/REC-SVG-20010904/DTD/svg10.dtd">
<svg version="1.0" xmlns="http://www.w3.org/2000/svg"
 width="1792.000000pt" height="2400.000000pt" viewBox="0 0 1792.000000 2400.000000"
 preserveAspectRatio="xMidYMid meet">

<g transform="translate(0.000000,2400.000000) scale(0.100000,-0.100000)"
fill="#000000" stroke="none">
<path d="M9655 18829 c-252 -25 -579 -80 -599 -100 -6 -5 -19 -9 -29 -9 -24 0
-155 -37 -179 -50 -10 -6 -25 -10 -33 -10 -20 0 -221 -74 -305 -112 -36 -16
-74 -33 -85 -38 -61 -26 -239 -114 -295 -146 -154 -87 -413 -266 -526 -363
-289 -251 -442 -412 -618 -646 -157 -209 -319 -461 -399 -622 -24 -46 -32 -53
-79 -68 -248 -80 -412 -225 -522 -460 -92 -196 -167 -568 -167 -825 1 -112 5
-146 26 -216 5 -17 -12 -34 -107 -106 -204 -155 -251 -209 -444 -513 -70 -110
-162 -254 -205 -320 -156 -238 -340 -522 -389 -600 -28 -44 -90 -140 -138
-213 -48 -73 -143 -219 -212 -325 -68 -106 -224 -343 -346 -527 -122 -184
-244 -376 -272 -427 -67 -121 -118 -252 -150 -388 -22 -95 -26 -133 -26 -275
0 -138 3 -180 22 -255 29 -116 87 -293 122 -370 15 -33 37 -85 50 -115 35 -81
230 -461 287 -560 27 -47 95 -161 152 -255 56 -93 108 -179 114 -190 7 -11 24
-38 38 -60 14 -22 72 -116 128 -209 l101 -168 0 -148 c0 -334 79 -509 275
-605 109 -54 182 -70 315 -68 139 1 254 29 415 99 195 86 361 207 495 362 30
35 61 70 68 78 28 30 121 177 158 250 21 42 40 72 42 66 1 -5 -6 -124 -17
-264 -36 -452 -83 -626 -297 -1110 -63 -141 -114 -259 -114 -262 0 -3 -11 -29
-24 -58 -33 -74 -95 -246 -155 -431 -48 -150 -57 -187 -46 -187 2 0 53 -14
111 -31 118 -34 116 -35 135 36 53 195 169 492 377 965 49 113 104 250 122
305 40 126 100 370 100 406 0 38 18 46 25 12 11 -54 67 -289 85 -353 10 -36
32 -119 50 -185 58 -220 128 -458 179 -608 47 -136 132 -360 151 -396 5 -9 19
-43 32 -76 13 -33 26 -61 31 -63 4 -2 7 -9 7 -16 0 -18 24 -66 33 -66 5 0 6
-4 3 -9 -3 -5 3 -20 15 -32 l20 -24 -6 23 c-4 13 -2 22 4 22 6 0 11 -9 11 -20
0 -31 17 -24 22 9 4 24 1 29 -14 26 -10 -2 -16 0 -13 5 3 5 1 11 -5 15 -5 3
-10 12 -10 18 0 7 7 4 14 -5 16 -21 38 -24 30 -4 -4 9 4 13 25 12 36 -1 41
-13 9 -19 -14 -3 -8 -5 15 -6 21 0 36 -5 33 -9 -2 -4 4 -9 15 -9 11 -1 17 2
14 8 -4 5 1 9 9 9 9 0 16 -6 16 -14 0 -8 6 -17 13 -19 10 -4 10 -6 0 -6 -15
-1 -18 -31 -3 -31 10 0 14 18 11 55 -1 17 1 17 14 -5 19 -29 15 -15 -16 60
-13 30 -28 58 -34 62 -5 4 -7 8 -3 8 3 0 -10 37 -29 83 -19 45 -50 123 -70
172 -19 50 -43 113 -54 140 -31 80 -176 544 -220 704 -103 374 -217 901 -298
1386 -86 513 -90 550 -71 712 5 44 12 149 16 232 4 83 10 151 15 151 12 0 126
-356 153 -480 41 -185 64 -364 71 -535 7 -180 31 -321 72 -417 86 -203 267
-375 460 -440 99 -33 266 -31 378 5 l79 26 55 -42 c83 -63 179 -125 244 -158
31 -16 57 -36 57 -44 0 -51 -35 -229 -60 -309 -52 -161 -170 -389 -249 -481
-44 -51 -105 -145 -98 -151 3 -4 18 4 34 16 43 33 40 6 -6 -55 -23 -30 -41
-56 -41 -59 0 -3 16 6 37 19 44 31 55 25 22 -12 -20 -21 -21 -25 -5 -20 17 7
17 5 -3 -28 l-20 -35 29 15 c16 8 40 25 54 37 49 45 66 58 79 58 6 0 -23 -34
-66 -76 -43 -42 -76 -78 -73 -82 3 -3 16 4 29 15 12 11 36 31 52 44 126 100
261 271 340 434 87 178 191 530 171 581 -7 18 7 18 106 -5 214 -49 502 -60
703 -27 135 22 310 72 429 122 101 42 279 147 348 205 l47 39 78 -27 c118 -40
255 -44 366 -9 115 36 199 88 293 181 117 117 167 199 214 356 30 99 32 116
40 339 9 241 20 334 66 520 32 127 144 470 154 470 4 0 10 -64 14 -142 4 -79
14 -201 21 -273 20 -188 0 -555 -41 -734 -53 -234 -178 -496 -319 -670 -125
-152 -384 -400 -616 -587 -224 -182 -339 -273 -389 -311 -30 -23 -64 -50 -75
-60 -11 -11 -90 -75 -175 -143 -145 -117 -450 -409 -531 -510 -65 -82 -198
-287 -239 -372 -38 -77 -66 -147 -112 -278 -27 -78 -78 -343 -78 -408 0 -61 6
-66 14 -12 11 75 56 264 65 273 5 5 5 -9 1 -35 -21 -111 -32 -256 -22 -274 10
-16 11 -13 12 19 0 20 4 37 9 37 5 0 11 12 14 27 12 71 50 230 59 246 18 35
17 11 -8 -103 -30 -145 -41 -250 -25 -250 6 0 11 10 11 21 0 31 22 99 32 99 4
0 8 -8 8 -17 0 -40 25 11 36 75 14 75 18 32 5 -55 -12 -86 2 -60 28 50 53 230
106 373 201 542 27 48 108 172 131 200 9 11 47 58 85 105 37 47 81 100 98 119
29 31 197 182 327 293 30 25 65 56 79 68 14 12 41 34 60 49 19 14 37 29 40 32
3 3 68 54 144 114 77 59 149 117 160 127 12 11 48 41 81 66 33 25 62 49 65 52
3 3 40 35 84 70 306 252 502 446 664 655 24 31 92 135 106 163 22 43 36 33 36
-26 0 -26 7 -87 15 -137 16 -99 19 -155 8 -155 -5 0 -17 -19 -28 -43 -11 -23
-26 -48 -32 -55 -7 -7 -13 -23 -12 -35 0 -21 1 -21 10 3 6 13 13 27 17 30 4 3
16 24 26 48 23 51 29 50 15 -2 -9 -32 -8 -40 11 -59 26 -27 69 -122 70 -153 0
-12 6 -27 14 -33 7 -6 19 -33 27 -59 7 -26 25 -77 41 -114 l28 -67 -46 -78
c-172 -291 -389 -512 -936 -953 -59 -47 -128 -102 -155 -122 -140 -109 -407
-315 -472 -366 -332 -258 -698 -605 -836 -793 -133 -181 -257 -417 -309 -590
-30 -100 -56 -243 -56 -310 l0 -49 114 0 115 0 10 58 c64 351 176 580 419 862
205 237 474 471 997 868 622 471 942 757 1150 1027 46 61 93 121 104 135 10
14 21 23 23 20 22 -26 192 -465 254 -652 47 -144 49 -147 74 -142 48 11 193
54 197 58 11 11 -105 361 -182 551 -148 364 -163 401 -216 513 -21 46 -39 85
-39 87 0 2 -13 32 -29 67 -88 193 -136 419 -166 784 -19 229 -22 294 -13 294
3 0 22 -29 42 -64 162 -295 383 -519 641 -649 193 -97 432 -149 585 -127 172
24 316 102 388 210 77 115 112 265 112 485 0 117 3 145 17 165 28 40 227 366
313 515 10 17 61 102 115 190 54 88 144 250 200 360 195 381 275 571 331 791
25 97 28 127 29 274 0 189 -20 302 -82 470 -55 147 -101 232 -256 467 -155
236 -253 387 -401 613 -52 80 -109 165 -126 190 -29 42 -195 296 -265 405 -17
28 -58 91 -90 140 -32 50 -89 137 -125 195 -37 58 -120 186 -185 285 -65 99
-161 245 -213 325 -52 80 -112 171 -134 204 l-40 58 11 118 c28 300 -2 513
-103 720 -42 87 -64 119 -129 185 -56 57 -80 89 -84 113 -3 17 -2 32 3 32 9 0
175 -81 184 -90 3 -3 30 -18 60 -34 161 -84 379 -242 610 -441 84 -73 300
-291 300 -303 0 -8 -25 -41 -55 -73 -252 -273 -286 -711 -80 -1034 116 -180
310 -321 520 -376 338 -88 685 32 900 311 372 484 139 1202 -447 1371 -53 15
-114 22 -219 26 l-146 6 -42 171 c-77 309 -204 706 -287 891 -7 17 -34 77 -59
134 -25 58 -75 161 -110 229 -65 124 -240 427 -260 448 -5 6 -21 30 -35 53
-125 211 -471 589 -707 773 -37 29 -75 59 -83 65 -36 30 -227 163 -250 175
-14 7 -38 21 -55 33 -16 11 -39 25 -50 31 -11 6 -47 25 -79 43 -89 50 -263
135 -331 161 -33 13 -64 26 -70 30 -43 31 -559 179 -710 204 -279 47 -692 68
-910 45z m580 -249 c326 -33 725 -131 970 -240 22 -10 63 -28 90 -40 64 -27
119 -54 125 -60 3 -3 46 -25 95 -50 50 -25 92 -47 95 -51 5 -5 101 -65 135
-83 35 -19 190 -125 210 -143 11 -10 40 -34 65 -53 25 -19 47 -37 50 -40 3 -3
28 -23 55 -45 67 -53 180 -163 174 -169 -3 -3 -18 6 -34 19 -42 35 -37 31
-185 131 -74 50 -162 106 -195 124 -133 73 -174 95 -258 136 -48 24 -90 44
-93 44 -5 0 -156 62 -199 81 -105 48 -499 155 -696 188 -279 48 -679 52 -977
12 -217 -30 -251 -38 -542 -126 -166 -50 -347 -124 -505 -206 -156 -80 -176
-92 -171 -106 3 -7 -1 -10 -8 -7 -10 4 -129 -66 -146 -86 -3 -3 -22 -16 -43
-29 -21 -13 -43 -28 -50 -35 -6 -6 -28 -23 -47 -36 -210 -147 -578 -555 -710
-786 -22 -38 -38 -54 -58 -58 -15 -3 -108 -19 -207 -36 -99 -16 -197 -35 -218
-41 -22 -6 -41 -8 -44 -5 -3 3 21 49 53 103 32 54 61 102 63 108 2 5 7 12 11
15 4 3 26 34 51 70 43 63 98 140 109 150 3 3 23 28 45 55 22 28 44 55 50 61 5
6 30 35 55 65 163 194 471 466 680 600 179 116 200 128 409 235 59 30 110 54
114 54 4 0 35 13 69 29 35 16 86 36 113 45 28 9 59 20 70 25 61 28 260 83 400
111 61 12 119 26 130 30 11 5 45 11 75 14 30 3 89 11 130 16 167 25 499 29
695 10z m-1386 -1905 c119 -8 239 -19 266 -25 28 -5 91 -14 140 -20 163 -21
504 -84 660 -123 323 -81 523 -140 705 -207 47 -17 144 -52 215 -77 91 -31
140 -55 165 -77 19 -17 28 -23 21 -13 -12 15 -12 17 5 11 10 -4 24 -11 29 -15
6 -4 46 -21 90 -39 44 -17 84 -36 89 -41 6 -5 16 -9 24 -9 13 0 83 -29 227
-95 62 -28 276 -144 285 -155 3 -3 23 -14 44 -25 47 -24 216 -187 216 -208 0
-9 3 -17 8 -19 13 -6 62 -117 78 -179 34 -132 10 -521 -42 -677 -35 -104 -52
-118 -102 -84 -15 10 -44 27 -64 37 -21 11 -38 23 -38 27 0 5 -6 8 -12 8 -7 0
-76 34 -153 76 -202 110 -347 184 -362 184 -7 0 -13 5 -13 10 0 6 -6 10 -12
10 -25 1 -158 67 -150 75 4 5 2 5 -5 1 -12 -7 -60 11 -258 94 -55 23 -131 53
-170 67 -38 14 -113 40 -165 59 -99 36 -215 73 -335 106 -38 11 -83 23 -100
28 -177 52 -500 124 -710 159 -892 149 -1718 144 -2470 -15 -155 -33 -482
-122 -519 -142 -16 -8 -26 -10 -22 -3 4 6 1 11 -9 11 -10 0 -13 -5 -9 -12 5
-7 2 -9 -8 -5 -9 3 -65 -16 -125 -43 -136 -60 -165 -67 -188 -43 -16 15 -17
31 -12 128 3 60 10 130 16 155 5 25 19 101 30 170 38 238 116 432 216 534 80
83 175 130 407 202 244 76 785 171 1108 195 69 5 136 10 150 12 75 11 667 5
859 -8z m-472 -1370 c35 -120 79 -353 97 -511 52 -461 -30 -1063 -202 -1479
-84 -205 -247 -471 -388 -635 -20 -22 -77 -94 -208 -260 -38 -48 -190 -258
-216 -300 -136 -211 -247 -433 -303 -605 -68 -206 -108 -388 -177 -799 -37
-222 -44 -256 -53 -245 -2 2 -25 69 -52 149 -55 168 -134 363 -232 575 -290
626 -421 1043 -499 1590 -21 151 -30 589 -14 741 46 454 183 901 385 1254 21
36 46 80 57 99 77 135 235 337 273 350 56 19 299 70 455 95 296 48 506 64 815
62 l239 -1 23 -80z m548 44 c251 -28 268 -31 287 -41 17 -8 17 -11 3 -45 -48
-113 -96 -441 -102 -693 -8 -300 36 -673 118 -992 51 -201 163 -495 221 -580
10 -14 18 -29 18 -32 0 -21 200 -304 343 -486 341 -432 472 -632 580 -885 94
-221 147 -414 197 -716 34 -207 41 -246 75 -444 65 -382 105 -701 105 -843 0
-213 -80 -397 -222 -508 -173 -135 -334 -123 -581 44 -16 11 -37 34 -48 51
-11 19 -24 29 -31 25 -6 -4 -8 -3 -4 4 7 12 -13 62 -26 62 -4 0 -3 -9 4 -20 7
-10 9 -22 5 -26 -10 -10 -41 8 -158 95 -184 136 -325 222 -519 318 -63 32
-118 62 -122 68 -9 12 -10 210 -2 293 l7 61 66 28 c145 60 333 170 364 212 6
9 46 44 88 78 91 74 147 145 193 244 28 59 32 75 20 77 -8 2 -20 -1 -27 -6 -7
-6 -61 -27 -122 -47 -88 -31 -129 -39 -205 -42 -89 -4 -98 -3 -150 24 -65 33
-94 73 -110 150 -23 108 7 189 84 224 95 43 147 15 166 -88 16 -86 22 -96 66
-124 54 -33 105 -39 187 -22 118 24 169 59 211 141 37 74 49 156 44 302 -5
127 -6 132 -44 208 -52 103 -170 223 -269 274 -298 152 -845 181 -1252 67
-332 -93 -509 -323 -489 -635 8 -112 28 -185 69 -246 91 -136 349 -159 420
-38 9 14 19 50 23 80 5 37 15 62 31 78 22 22 31 24 79 19 104 -11 148 -67 148
-187 -1 -121 -45 -188 -151 -226 -78 -27 -201 -9 -381 57 -45 17 -87 29 -92
27 -16 -5 66 -160 117 -219 26 -31 73 -76 103 -99 30 -24 69 -57 85 -75 17
-18 49 -44 72 -58 64 -40 251 -133 316 -157 l57 -22 -2 -181 -3 -181 -30 -16
c-16 -8 -32 -17 -35 -20 -12 -12 -296 -150 -308 -150 -7 0 -11 -4 -8 -8 3 -5
-10 -15 -29 -22 -19 -8 -35 -17 -35 -21 0 -4 -9 -11 -20 -14 -11 -3 -26 -12
-33 -18 -7 -7 -35 -28 -62 -47 -28 -19 -54 -38 -60 -42 -44 -36 -157 -118
-189 -137 l-38 -24 7 24 c7 21 6 22 -9 10 -9 -7 -16 -22 -16 -32 0 -42 -197
-156 -311 -180 -105 -23 -215 7 -321 88 -92 71 -170 213 -203 368 -13 63 -15
106 -10 200 8 143 38 397 65 550 11 61 40 238 64 395 65 413 117 652 182 834
53 146 96 244 167 371 82 148 182 292 354 512 111 141 266 346 308 405 84 119
204 316 240 394 80 172 170 474 216 724 85 463 75 1009 -27 1390 -14 52 -28
108 -31 124 l-6 28 74 -7 c41 -3 151 -15 244 -26z m743 -119 c193 -39 531
-133 832 -232 269 -88 415 -147 670 -270 80 -39 169 -82 198 -96 49 -23 56
-31 87 -96 58 -125 138 -365 184 -556 71 -289 96 -531 88 -835 -7 -242 -17
-337 -58 -560 -63 -336 -160 -667 -276 -940 -33 -77 -81 -192 -108 -255 -26
-63 -62 -144 -80 -180 -18 -36 -52 -116 -76 -177 -23 -62 -47 -113 -51 -113
-4 0 -8 89 -8 198 0 295 -17 457 -91 852 l-30 165 143 146 c152 155 255 292
328 437 57 113 112 280 59 180 -21 -42 -45 -52 -35 -15 3 12 9 39 12 61 7 36
6 38 -14 27 -28 -15 -32 -14 -32 7 0 11 -6 7 -19 -14 -32 -52 -58 -54 -30 -2
18 33 2 32 -30 -4 -32 -34 -38 -29 -21 19 l10 28 -18 -24 c-9 -13 -35 -56 -57
-96 -147 -265 -304 -454 -483 -580 -65 -46 -71 -53 -72 -86 0 -19 20 -132 44
-250 70 -335 106 -639 106 -885 0 -141 -12 -195 -25 -112 -34 223 -57 323
-121 516 -40 122 -110 289 -163 386 -107 201 -337 526 -589 831 -123 149 -276
399 -360 589 -154 345 -253 954 -223 1377 10 147 45 375 75 484 8 28 17 63 20
79 7 28 8 29 60 22 29 -3 98 -15 154 -26z m-3266 -157 c-95 -138 -157 -253
-242 -448 -145 -332 -210 -564 -267 -950 -25 -172 -25 -691 0 -890 49 -381
109 -630 261 -1083 161 -481 190 -637 190 -1032 1 -301 -27 -542 -94 -825
-129 -545 -438 -940 -840 -1078 -113 -38 -190 -50 -293 -45 -183 10 -259 79
-293 268 -28 156 -19 261 60 720 25 146 53 312 61 370 25 174 82 566 130 893
44 299 54 408 35 361 -5 -12 -12 -42 -15 -68 -12 -80 -23 -60 -19 37 l4 92
-19 -40 c-18 -36 -20 -38 -21 -15 -2 14 -2 29 -1 33 4 24 -18 -8 -24 -33 -10
-46 -25 -46 -25 -1 0 44 -16 56 -25 19 -3 -13 -9 -41 -14 -63 l-9 -40 -1 53
c-1 44 -4 52 -20 52 -14 0 -22 -14 -34 -57 -8 -32 -18 -76 -21 -98 -3 -22 -21
-137 -40 -255 -19 -118 -42 -269 -52 -335 -9 -66 -21 -131 -27 -145 -5 -14
-12 -33 -14 -42 -9 -50 -12 -65 -12 -86 -1 -13 -4 -21 -8 -19 -5 3 -8 -18 -9
-47 -1 -92 -16 -209 -24 -196 -4 7 -6 -7 -3 -31 4 -40 -40 -355 -51 -366 -2
-3 -14 14 -26 37 -20 39 -87 150 -251 415 -247 400 -483 910 -534 1153 -40
192 -5 428 95 648 40 86 63 124 277 448 94 144 206 315 249 381 43 66 115 176
160 245 109 167 274 421 358 550 37 58 122 189 189 292 67 103 171 262 230
353 60 92 110 165 113 162 2 -2 -12 -46 -31 -97 -66 -171 -130 -432 -172 -705
-25 -169 -25 -637 1 -805 22 -143 68 -349 112 -500 30 -104 100 -305 124 -355
5 -11 19 -45 31 -75 12 -30 54 -116 93 -190 128 -247 155 -305 186 -401 48
-146 92 -259 101 -259 12 0 11 17 -2 42 -8 15 -8 19 0 14 6 -4 11 -2 11 5 0 8
4 8 15 -1 21 -17 29 -7 15 19 -8 16 -8 21 3 21 7 0 23 -19 35 -42 l22 -43 -5
47 c-6 46 8 76 18 38 3 -11 11 -20 17 -20 9 0 11 15 8 50 -3 27 -2 52 1 55 3
4 16 -22 28 -57 l23 -63 -6 50 c-15 128 -96 349 -212 580 -202 404 -286 635
-351 965 -42 211 -54 605 -26 845 28 248 90 516 163 715 38 106 149 362 185
431 13 24 52 98 86 164 94 183 97 185 281 249 85 29 161 54 168 55 8 1 7 -8
-6 -26z m7532 12 c223 -47 413 -217 479 -430 32 -105 29 -274 -7 -369 -75
-200 -201 -325 -398 -398 -90 -33 -280 -33 -384 -1 -79 25 -198 98 -188 115 4
6 2 8 -3 5 -6 -4 -17 0 -24 9 -10 13 -10 17 2 26 11 7 9 9 -8 5 -26 -6 -65 33
-116 115 -52 85 -66 136 -74 275 -12 214 83 423 236 521 35 22 56 31 59 24 2
-7 8 -10 13 -7 5 4 6 -1 2 -10 -4 -13 -8 -14 -14 -4 -4 8 -11 10 -15 6 -4 -4
0 -15 9 -25 18 -20 23 -37 8 -27 -5 3 -12 1 -15 -4 -4 -5 -2 -13 4 -16 6 -4 8
-16 4 -27 -4 -14 -2 -18 5 -14 6 4 11 16 11 26 0 10 5 22 10 25 6 3 10 15 10
25 0 10 5 20 10 22 6 2 12 13 13 25 0 12 3 20 6 18 7 -7 41 26 41 40 0 7 16
20 35 29 76 36 181 44 289 21z m-347 -62 c-9 -9 -19 -14 -23 -11 -10 10 6 28
24 28 15 0 15 -1 -1 -17z m-42 -23 c-3 -5 -10 -10 -16 -10 -5 0 -9 5 -9 10 0
6 7 10 16 10 8 0 12 -4 9 -10z m-1631 -662 c34 -13 74 -19 126 -19 l77 0 41
-122 c120 -358 172 -642 179 -978 4 -185 2 -236 -16 -365 -66 -454 -144 -696
-376 -1167 -69 -138 -136 -283 -151 -322 -37 -100 -90 -312 -111 -440 -25
-158 -25 -533 0 -710 52 -370 165 -713 303 -920 179 -271 508 -446 762 -405
82 13 189 50 235 83 16 10 30 17 33 15 5 -6 -24 -105 -41 -138 -19 -37 -64
-79 -110 -103 -61 -31 -225 -36 -332 -9 -281 71 -513 237 -678 487 -146 221
-230 438 -294 768 -53 269 -65 388 -65 667 0 420 51 684 211 1095 90 232 198
687 238 998 43 340 37 744 -16 1057 -22 126 -66 313 -112 470 -30 102 -30 103
-28 113 0 5 18 -1 38 -13 21 -12 60 -31 87 -42z m472 0 c15 -24 33 -52 39 -63
15 -28 146 -230 340 -525 167 -255 315 -481 409 -627 91 -140 243 -374 545
-833 180 -274 223 -354 271 -497 31 -95 60 -253 60 -334 0 -129 -51 -313 -153
-544 -98 -224 -317 -649 -324 -628 -2 6 17 59 42 119 71 167 135 363 184 564
74 302 47 595 -78 825 -34 63 -144 228 -250 375 -22 30 -77 109 -122 175 -46
66 -102 147 -125 180 -24 33 -91 132 -150 220 -59 88 -114 166 -121 173 -7 7
-13 17 -13 21 0 4 -17 30 -37 58 -21 28 -45 60 -53 72 -8 12 -17 21 -20 21 -3
0 -5 -91 -5 -203 l1 -202 40 -65 c45 -72 76 -117 115 -170 23 -31 119 -170
422 -610 95 -137 127 -194 156 -278 83 -241 42 -413 -212 -907 -36 -71 -98
-186 -137 -253 -38 -68 -70 -128 -70 -133 0 -5 -4 -9 -9 -9 -4 0 -32 145 -60
323 -29 177 -63 387 -77 466 -28 166 -48 217 -39 101 5 -69 5 -73 -8 -45 -8
17 -22 66 -31 110 -10 44 -22 84 -27 90 -10 10 -8 -22 11 -167 23 -185 4 -193
-25 -10 -10 61 -21 112 -25 112 -4 0 -6 -11 -5 -24 5 -42 -12 -50 -21 -9 -8
35 -9 31 -14 -42 l-5 -80 -24 90 c-24 91 -35 115 -48 101 -4 -4 -2 -11 5 -15
7 -4 10 -14 7 -23 -11 -27 162 -1237 240 -1678 33 -191 33 -194 -18 -261 -51
-68 -86 -98 -152 -131 -102 -51 -215 -44 -352 23 -219 105 -376 350 -474 739
-56 224 -70 327 -76 572 -6 249 2 349 43 534 42 189 81 287 241 594 200 385
324 794 373 1230 16 145 14 503 -5 664 -31 268 -113 599 -194 789 -34 79 -28
89 15 25z m-3094 -2766 c108 -22 218 -67 218 -89 0 -19 -45 -96 -70 -118 -15
-13 -29 -16 -57 -12 -199 32 -255 37 -443 37 -234 0 -383 -17 -492 -54 -41
-14 -84 -26 -96 -26 -26 0 -78 46 -86 76 -19 65 116 149 294 185 202 40 539
40 732 1z m-717 -2384 c68 -15 142 -21 305 -25 215 -5 315 3 470 38 l55 12 90
-59 c125 -82 292 -202 301 -215 10 -16 -23 -39 -146 -103 -128 -66 -210 -96
-365 -132 -113 -27 -133 -29 -345 -29 -255 0 -336 11 -523 71 -115 37 -222 87
-315 146 l-52 34 27 25 c36 34 196 151 297 218 50 33 85 50 95 45 9 -3 57 -15
106 -26z m-1305 -2058 c0 -5 -4 -10 -10 -10 -5 0 -10 5 -10 10 0 6 5 10 10 10
6 0 10 -4 10 -10z m-160 -96 c0 -8 -4 -12 -10 -9 -5 3 -10 13 -10 21 0 8 5 12
10 9 6 -3 10 -13 10 -21z m95 -33 c-3 -6 -11 -11 -17 -11 -6 0 -6 6 2 15 14
17 26 13 15 -4z m125 -1 c0 -5 -4 -10 -10 -10 -5 0 -10 5 -10 10 0 6 5 10 10
10 6 0 10 -4 10 -10z m10 -30 c0 -5 -5 -10 -11 -10 -5 0 -7 5 -4 10 3 6 8 10
11 10 2 0 4 -4 4 -10z m1680 -344 c0 -8 -4 -18 -10 -21 -5 -3 -10 3 -10 14 0
12 5 21 10 21 6 0 10 -6 10 -14z"/>
<path d="M11042 16085 c6 -14 15 -25 20 -25 12 0 9 12 -6 33 -19 25 -27 21
-14 -8z"/>
<path d="M11111 16085 c0 -12 24 -45 33 -45 4 0 5 4 2 9 -4 5 0 12 6 14 7 3 3
6 -9 6 -12 1 -24 7 -26 14 -3 6 -6 8 -6 2z"/>
<path d="M11071 16045 c0 -5 6 -18 13 -28 13 -16 14 -16 20 -1 4 9 4 19 1 22
-3 3 -5 -1 -5 -8 0 -9 -5 -7 -15 6 -8 10 -14 15 -14 9z"/>
<path d="M9100 16011 c0 -10 107 -7 117 3 3 3 -21 6 -55 6 -34 0 -62 -4 -62
-9z"/>
<path d="M9236 16011 c-3 -4 52 -9 121 -10 70 -1 125 0 123 2 -10 9 -239 16
-244 8z"/>
<path d="M8848 16003 c18 -2 45 -2 60 0 15 2 0 4 -33 4 -33 0 -45 -2 -27 -4z"/>
<path d="M8948 16003 c6 -2 18 -2 25 0 6 3 1 5 -13 5 -14 0 -19 -2 -12 -5z"/>
<path d="M9558 15993 c6 -2 18 -2 25 0 6 3 1 5 -13 5 -14 0 -19 -2 -12 -5z"/>
<path d="M11100 15975 c0 -8 2 -15 4 -15 2 0 6 7 10 15 3 8 1 15 -4 15 -6 0
-10 -7 -10 -15z"/>
<path d="M8378 15963 c6 -2 18 -2 25 0 6 3 1 5 -13 5 -14 0 -19 -2 -12 -5z"/>
<path d="M9937 15945 c79 -13 152 -27 164 -30 13 -4 19 -3 16 2 -4 6 -41 16
-84 22 -43 7 -102 17 -132 22 -30 5 -66 9 -80 8 -14 -1 38 -11 116 -24z"/>
<path d="M11120 15935 c0 -12 6 -30 14 -41 13 -17 14 -16 13 22 -2 42 -27 60
-27 19z"/>
<path d="M8253 15943 c32 -2 81 -2 110 0 29 2 3 3 -58 3 -60 0 -84 -1 -52 -3z"/>
<path d="M8433 15943 c9 -2 23 -2 30 0 6 3 -1 5 -18 5 -16 0 -22 -2 -12 -5z"/>
<path d="M9748 15943 c7 -3 16 -2 19 1 4 3 -2 6 -13 5 -11 0 -14 -3 -6 -6z"/>
<path d="M9788 15943 c6 -2 18 -2 25 0 6 3 1 5 -13 5 -14 0 -19 -2 -12 -5z"/>
<path d="M7998 15913 c7 -3 16 -2 19 1 4 3 -2 6 -13 5 -11 0 -14 -3 -6 -6z"/>
<path d="M10145 15910 c19 -8 83 -14 74 -6 -2 2 -24 6 -49 9 -30 4 -38 3 -25
-3z"/>
<path d="M7878 15883 c12 -2 30 -2 40 0 9 3 -1 5 -23 4 -22 0 -30 -2 -17 -4z"/>
<path d="M7808 15873 c6 -2 18 -2 25 0 6 3 1 5 -13 5 -14 0 -19 -2 -12 -5z"/>
<path d="M10303 15873 c9 -2 23 -2 30 0 6 3 -1 5 -18 5 -16 0 -22 -2 -12 -5z"/>
<path d="M7725 15860 l-20 -9 20 1 c11 0 31 4 45 8 l25 8 -25 0 c-14 0 -34 -3
-45 -8z"/>
<path d="M10365 15860 c27 -12 35 -12 35 0 0 6 -12 10 -27 9 -25 0 -26 -1 -8
-9z"/>
<path d="M11145 15860 c3 -5 8 -10 11 -10 2 0 4 5 4 10 0 6 -5 10 -11 10 -5 0
-7 -4 -4 -10z"/>
<path d="M10410 15851 c0 -5 14 -11 31 -15 51 -10 57 -6 14 9 -48 17 -45 17
-45 6z"/>
<path d="M7595 15824 l-50 -13 50 5 c48 6 63 10 54 17 -2 2 -26 -2 -54 -9z"/>
<path d="M10508 15823 c6 -2 18 -2 25 0 6 3 1 5 -13 5 -14 0 -19 -2 -12 -5z"/>
<path d="M10550 15816 c0 -2 7 -7 16 -10 8 -3 12 -2 9 4 -6 10 -25 14 -25 6z"/>
<path d="M7518 15803 c7 -3 16 -2 19 1 4 3 -2 6 -13 5 -11 0 -14 -3 -6 -6z"/>
<path d="M10608 15798 c5 -5 16 -8 23 -6 8 3 3 7 -10 11 -17 4 -21 3 -13 -5z"/>
<path d="M7475 15790 c-3 -5 1 -10 10 -10 9 0 13 5 10 10 -3 6 -8 10 -10 10
-2 0 -7 -4 -10 -10z"/>
<path d="M10696 15762 c-3 -5 1 -9 9 -9 8 0 15 4 15 9 0 4 -4 8 -9 8 -6 0 -12
-4 -15 -8z"/>
<path d="M10738 15753 c7 -3 16 -2 19 1 4 3 -2 6 -13 5 -11 0 -14 -3 -6 -6z"/>
<path d="M11797 15749 c7 -7 15 -10 18 -7 3 3 -2 9 -12 12 -14 6 -15 5 -6 -5z"/>
<path d="M10770 15742 c0 -4 12 -9 28 -10 21 -1 23 0 12 8 -18 12 -40 13 -40
2z"/>
<path d="M10875 15702 c38 -23 143 -57 152 -49 3 4 -3 9 -13 12 -10 4 -27 11
-36 16 -10 5 -24 9 -32 9 -7 0 -27 7 -42 15 -41 21 -65 19 -29 -3z"/>
<path d="M7135 15688 c-59 -20 -72 -28 -35 -22 19 4 46 12 60 20 29 15 18 16
-25 2z"/>
<path d="M10855 15670 c3 -5 8 -10 11 -10 2 0 4 5 4 10 0 6 -5 10 -11 10 -5 0
-7 -4 -4 -10z"/>
<path d="M7020 15651 c-8 -5 -58 -24 -110 -41 -102 -35 -126 -47 -70 -36 59
11 240 84 210 85 -8 0 -22 -4 -30 -8z"/>
<path d="M11045 15640 c3 -5 14 -10 23 -10 15 0 15 2 2 10 -20 13 -33 13 -25
0z"/>
<path d="M11100 15619 c0 -5 5 -7 10 -4 6 3 10 8 10 11 0 2 -4 4 -10 4 -5 0
-10 -5 -10 -11z"/>
<path d="M6860 15560 c-9 -5 -29 -7 -45 -5 -41 5 -130 -24 -116 -38 7 -7 14
-7 23 1 8 6 30 9 51 7 20 -1 34 1 31 6 -3 5 25 9 63 9 37 0 86 4 108 10 l40 9
-43 -3 c-23 -2 -40 0 -36 5 7 12 -56 11 -76 -1z m44 -12 c-3 -4 -11 -5 -19 -1
-21 7 -19 12 4 10 11 0 18 -5 15 -9z"/>
<path d="M6848 15523 c6 -2 18 -2 25 0 6 3 1 5 -13 5 -14 0 -19 -2 -12 -5z"/>
<path d="M6645 15500 c-3 -5 1 -10 9 -10 9 0 16 5 16 10 0 6 -4 10 -9 10 -6 0
-13 -4 -16 -10z"/>
<path d="M6730 15500 c-18 -12 -2 -12 25 0 13 6 15 9 5 9 -8 0 -22 -4 -30 -9z"/>
<path d="M12032 14650 c0 -14 2 -19 5 -12 2 6 2 18 0 25 -3 6 -5 1 -5 -13z"/>
<path d="M12000 14610 c-13 -8 -13 -10 2 -10 9 0 20 5 23 10 8 13 -5 13 -25 0z"/>
<path d="M7265 14682 c-259 -16 -549 -147 -674 -303 -30 -36 -31 -40 -10 -28
13 7 30 19 37 28 8 9 11 10 7 4 -9 -18 5 -16 54 8 54 26 63 18 26 -21 -22 -23
-25 -30 -12 -30 8 0 19 5 22 10 7 11 45 14 45 4 0 -4 -17 -22 -37 -40 l-38
-33 42 19 c70 33 79 24 26 -27 -27 -26 -37 -39 -21 -30 141 86 209 120 333
163 106 37 115 38 240 38 113 0 137 -3 185 -22 130 -54 239 -142 341 -273 29
-37 49 -34 31 6 -16 34 0 39 27 9 23 -27 39 -28 54 -3 9 14 -2 48 -25 81 -21
29 -1 32 28 4 34 -31 41 -27 24 14 -18 42 -4 50 26 15 24 -29 25 -29 18 -5
-19 69 -138 204 -244 277 -139 96 -328 147 -505 135z"/>
<path d="M7220 14129 c-99 -10 -157 -26 -244 -70 -142 -71 -262 -169 -400
-328 -105 -120 -139 -167 -131 -181 9 -15 107 -78 147 -95 42 -17 45 -21 74
-93 95 -231 280 -381 511 -413 144 -20 304 9 501 92 79 33 107 41 119 33 11
-7 23 -43 34 -103 10 -52 20 -95 22 -97 2 -2 20 29 41 68 22 39 59 101 84 137
l44 66 -18 70 c-29 115 -130 407 -173 498 -46 100 -125 220 -178 273 -112 110
-262 159 -433 143z m238 -315 c29 -20 52 -66 52 -103 0 -92 -88 -140 -168 -91
-34 21 -62 71 -57 99 2 9 4 23 4 32 1 9 15 30 31 48 25 25 38 31 73 31 23 0
53 -7 65 -16z m-488 -53 c0 -12 -29 -35 -36 -28 -7 6 17 36 29 37 4 0 7 -4 7
-9z m-21 -41 c4 0 5 -29 3 -64 -5 -81 15 -145 68 -216 40 -54 56 -95 21 -52
-25 29 -46 28 -76 -4 -14 -15 -25 -21 -25 -15 0 7 -5 9 -12 5 -6 -4 -8 -3 -4
4 3 6 -1 17 -9 25 -8 9 -15 20 -15 26 0 6 -4 11 -10 11 -5 0 -7 -8 -4 -17 5
-16 4 -16 -10 1 -14 17 -14 20 0 30 12 9 13 17 5 38 -5 14 -7 29 -4 32 4 3 1
6 -5 6 -7 0 -12 9 -12 20 0 11 -4 20 -9 20 -4 0 -7 -12 -5 -27 4 -28 4 -28 -5
-3 -15 41 -12 94 6 120 26 38 67 71 81 65 8 -3 17 -5 21 -5z m681 -150 c0 -5
-2 -10 -4 -10 -3 0 -8 5 -11 10 -3 6 -1 10 4 10 6 0 11 -4 11 -10z m-17 -56
c-2 -6 0 -15 6 -19 6 -3 11 1 11 9 0 26 17 18 24 -11 5 -16 3 -29 -5 -34 -7
-4 -12 -23 -11 -43 1 -27 -2 -34 -14 -29 -8 3 -14 2 -13 -3 5 -26 -1 -36 -15
-25 -10 8 -16 8 -25 -3 -8 -10 -9 -16 -1 -21 5 -3 10 -18 10 -32 0 -23 3 -25
33 -19 32 6 32 5 7 -8 -21 -12 -27 -12 -41 0 -9 8 -19 11 -22 8 -4 -4 1 -13
11 -21 9 -8 11 -12 5 -8 -7 3 -13 2 -13 -3 0 -12 -114 -67 -170 -82 -45 -12
-168 -15 -201 -5 -10 3 -16 12 -13 19 3 7 -2 20 -10 28 -11 11 -12 18 -3 27 8
8 8 11 -1 11 -7 0 -12 7 -12 17 0 9 3 13 7 10 3 -4 12 2 19 12 11 16 30 19
111 23 94 4 114 9 183 49 50 29 130 138 130 178 0 13 2 14 9 2 5 -8 7 -20 4
-27z m27 26 c0 -5 -5 -10 -11 -10 -5 0 -7 5 -4 10 3 6 8 10 11 10 2 0 4 -4 4
-10z m-770 -75 c0 -5 -5 -3 -10 5 -5 8 -10 20 -10 25 0 6 5 3 10 -5 5 -8 10
-19 10 -25z m804 -31 c8 -21 8 -21 -10 -28 -8 -3 -12 -2 -9 4 3 6 2 10 -4 10
-6 0 -8 7 -5 15 8 19 20 19 28 -1z m-514 -254 c0 -5 -2 -10 -4 -10 -3 0 -8 5
-11 10 -3 6 -1 10 4 10 6 0 11 -4 11 -10z"/>
<path d="M7630 13480 c-9 -6 -10 -10 -3 -10 6 0 15 5 18 10 8 12 4 12 -15 0z"/>
<path d="M7610 13410 c0 -5 5 -10 10 -10 6 0 10 5 10 10 0 6 -4 10 -10 10 -5
0 -10 -4 -10 -10z"/>
<path d="M6500 12941 c5 -11 10 -28 10 -37 0 -14 -3 -15 -12 -6 -17 17 -28 15
-28 -7 0 -23 -22 -40 -28 -23 -2 7 -12 17 -23 23 -18 9 -19 7 -13 -29 4 -25 2
-42 -5 -46 -6 -4 -11 -4 -11 1 0 4 -9 19 -20 33 -19 24 -19 23 1 -30 77 -203
280 -472 502 -662 l27 -24 -20 -79 c-23 -87 -39 -312 -19 -262 15 38 29 24 30
-31 0 -46 1 -46 16 -24 20 29 33 28 33 -4 0 -14 4 -23 10 -19 6 3 10 16 10 28
0 31 18 8 22 -28 3 -29 4 -28 28 22 14 29 29 52 33 53 4 0 5 -24 3 -52 l-6
-53 14 42 c16 47 95 414 103 479 5 38 3 43 -28 64 -102 72 -225 183 -314 285
-36 41 -131 183 -189 281 -26 45 -58 91 -71 102 -21 19 -24 19 -28 4 -4 -15
-5 -15 -6 1 0 9 -8 17 -16 17 -12 0 -13 -4 -5 -19z"/>
<path d="M9496 10262 c-2 -4 -1 -14 4 -22 7 -11 9 -9 7 8 -1 24 -3 26 -11 14z"/>
<path d="M8315 10180 c-4 -17 -5 -34 -2 -36 3 -3 8 9 12 26 4 17 5 34 2 36 -3
3 -8 -9 -12 -26z"/>
<path d="M9547 10073 c3 -21 9 -42 13 -48 4 -5 10 -23 14 -39 4 -15 9 -26 12
-23 5 5 -35 147 -41 147 -2 0 -1 -17 2 -37z"/>
<path d="M9590 9942 c0 -16 31 -112 36 -112 6 0 -3 40 -20 85 -8 22 -15 34
-16 27z"/>
<path d="M8236 9915 c-9 -26 -7 -32 5 -12 6 10 9 21 6 23 -2 3 -7 -2 -11 -11z"/>
<path d="M8220 9869 c0 -5 5 -7 10 -4 6 3 10 8 10 11 0 2 -4 4 -10 4 -5 0 -10
-5 -10 -11z"/>
<path d="M8202 9823 c-45 -114 -83 -226 -78 -230 5 -6 36 63 36 81 0 7 4 16 8
22 12 14 55 144 50 150 -3 2 -10 -8 -16 -23z"/>
<path d="M9630 9806 c0 -8 5 -18 10 -21 6 -3 10 1 10 9 0 8 -4 18 -10 21 -5 3
-10 -1 -10 -9z"/>
<path d="M9650 9758 c0 -9 5 -20 10 -23 13 -8 13 5 0 25 -8 13 -10 13 -10 -2z"/>
<path d="M9683 9670 c4 -14 7 -31 7 -37 0 -7 4 -13 9 -13 6 0 6 12 1 31 -11
38 -26 55 -17 19z"/>
<path d="M9710 9601 c0 -6 4 -13 10 -16 6 -3 7 1 4 9 -7 18 -14 21 -14 7z"/>
<path d="M9731 9560 c0 -8 6 -28 14 -45 l14 -30 -6 30 c-7 38 -22 68 -22 45z"/>
<path d="M8090 9545 c0 -8 2 -15 4 -15 2 0 6 7 10 15 3 8 1 15 -4 15 -6 0 -10
-7 -10 -15z"/>
<path d="M8075 9510 c-3 -5 -1 -10 4 -10 6 0 11 5 11 10 0 6 -2 10 -4 10 -3 0
-8 -4 -11 -10z"/>
<path d="M8348 9493 c7 -3 16 -2 19 1 4 3 -2 6 -13 5 -11 0 -14 -3 -6 -6z"/>
<path d="M8031 9404 c0 -11 3 -14 6 -6 3 7 2 16 -1 19 -3 4 -6 -2 -5 -13z"/>
<path d="M7996 9323 c-6 -14 -5 -15 5 -6 7 7 10 15 7 18 -3 3 -9 -2 -12 -12z"/>
<path d="M7967 9265 c-9 -19 -13 -35 -9 -35 9 0 36 59 30 65 -2 3 -12 -11 -21
-30z"/>
<path d="M10475 14684 c-86 -10 -175 -29 -220 -46 -199 -78 -342 -195 -428
-352 -33 -60 -36 -88 -7 -61 18 16 20 16 20 2 0 -20 15 -22 26 -5 10 15 25
-27 18 -47 -11 -27 15 -16 30 13 8 15 23 35 34 45 21 19 21 19 10 -17 -13 -41
-3 -60 17 -33 8 12 15 14 20 8 3 -6 2 -11 -2 -11 -5 0 -9 -9 -10 -20 -1 -11 0
-20 3 -20 2 0 38 36 81 80 85 89 175 154 273 196 179 76 461 19 727 -148 35
-22 68 -38 75 -36 6 2 -12 19 -41 38 -39 26 -48 36 -37 42 14 8 106 -34 145
-66 12 -9 12 -8 3 9 -6 12 -22 27 -36 35 -27 14 -36 36 -11 27 8 -4 17 -2 20
3 4 6 17 4 34 -4 27 -15 44 -11 48 11 1 6 -15 27 -37 47 -45 40 -50 51 -19 43
66 -17 -67 81 -204 151 -109 56 -210 87 -338 106 -103 15 -130 17 -194 10z
m775 -356 c0 -6 -6 -5 -15 2 -8 7 -15 14 -15 16 0 2 7 1 15 -2 8 -4 15 -11 15
-16z m-115 2 c8 -13 -5 -13 -25 0 -13 8 -13 10 2 10 9 0 20 -4 23 -10z"/>
<path d="M10410 14111 c-81 -26 -170 -76 -219 -124 -131 -127 -250 -389 -351
-775 l-19 -74 54 -83 c29 -45 66 -106 80 -134 15 -28 30 -53 34 -55 4 -3 17
42 31 100 18 79 28 104 40 104 9 0 56 -14 106 -31 49 -16 141 -43 204 -60 316
-80 574 9 739 257 28 41 60 101 72 133 22 63 35 73 124 101 51 16 92 45 100
70 8 25 -72 127 -218 278 -37 38 -93 89 -125 113 -31 24 -59 46 -62 49 -34 36
-200 114 -290 136 -80 19 -233 17 -300 -5z m81 -296 c37 -19 69 -70 69 -108 0
-65 -104 -124 -169 -97 -53 22 -76 102 -46 160 28 54 90 73 146 45z"/>
<path d="M4997 13147 c-3 -8 -1 -20 4 -28 6 -10 9 -7 9 14 0 29 -5 35 -13 14z"/>
<path d="M4956 13083 c-6 -14 -5 -15 5 -6 7 7 10 15 7 18 -3 3 -9 -2 -12 -12z"/>
<path d="M4991 13034 c0 -11 3 -14 6 -6 3 7 2 16 -1 19 -3 4 -6 -2 -5 -13z"/>
<path d="M4992 12990 c0 -14 2 -19 5 -12 2 6 2 18 0 25 -3 6 -5 1 -5 -13z"/>
<path d="M4895 12990 c3 -5 8 -10 11 -10 2 0 4 5 4 10 0 6 -5 10 -11 10 -5 0
-7 -4 -4 -10z"/>
<path d="M4857 12937 c-20 -25 -22 -40 -4 -34 6 2 12 8 12 13 0 5 4 15 9 22
14 23 2 22 -17 -1z"/>
<path d="M4992 12915 c0 -16 2 -22 5 -12 2 9 2 23 0 30 -3 6 -5 -1 -5 -18z"/>
<path d="M5002 12840 c0 -19 2 -27 5 -17 2 9 2 25 0 35 -3 9 -5 1 -5 -18z"/>
<path d="M4796 12845 c-3 -8 -1 -15 4 -15 6 0 10 7 10 15 0 8 -2 15 -4 15 -2
0 -6 -7 -10 -15z"/>
<path d="M4770 12809 c0 -5 5 -7 10 -4 6 3 10 8 10 11 0 2 -4 4 -10 4 -5 0
-10 -5 -10 -11z"/>
<path d="M4990 12773 c0 -26 1 -26 15 -7 19 25 19 34 0 34 -10 0 -15 -10 -15
-27z"/>
<path d="M4745 12769 c-4 -6 -5 -12 -2 -15 2 -3 7 2 10 11 7 17 1 20 -8 4z"/>
<path d="M4970 12729 c0 -5 5 -7 10 -4 6 3 10 8 10 11 0 2 -4 4 -10 4 -5 0
-10 -5 -10 -11z"/>
<path d="M4927 12653 c-15 -32 -15 -35 -1 -18 24 30 36 55 26 55 -4 0 -16 -17
-25 -37z"/>
<path d="M4875 12597 c-10 -8 -15 -19 -11 -25 3 -6 2 -13 -4 -17 -5 -3 -10
-11 -10 -16 0 -13 21 8 44 44 20 29 11 35 -19 14z m15 -11 c0 -3 -4 -8 -10
-11 -5 -3 -10 -1 -10 4 0 6 5 11 10 11 6 0 10 -2 10 -4z"/>
<path d="M4832 12508 c-7 -7 -12 -16 -12 -21 0 -5 7 -1 16 8 9 9 14 18 12 20
-2 3 -10 -1 -16 -7z"/>
<path d="M4785 12434 c-15 -19 -25 -38 -22 -40 4 -5 31 28 51 64 14 25 -2 11
-29 -24z"/>
<path d="M4443 12328 c-22 -31 -18 -48 12 -48 6 0 3 5 -5 10 -12 8 -11 13 8
39 12 17 19 31 15 31 -4 0 -18 -15 -30 -32z"/>
<path d="M4702 12310 c-7 -11 -8 -20 -3 -20 9 0 24 30 18 36 -1 2 -8 -6 -15
-16z"/>
<path d="M4403 12268 c-19 -25 -24 -38 -14 -38 6 0 11 5 11 11 0 7 8 18 18 25
9 7 12 14 6 14 -6 0 -16 -6 -21 -12z"/>
<path d="M4675 12270 c-3 -5 -1 -10 4 -10 6 0 11 5 11 10 0 6 -2 10 -4 10 -3
0 -8 -4 -11 -10z"/>
<path d="M4446 12245 c4 -8 8 -15 10 -15 2 0 4 7 4 15 0 8 -4 15 -10 15 -5 0
-7 -7 -4 -15z"/>
<path d="M4645 12220 c-4 -6 -11 -7 -17 -4 -7 4 -8 2 -4 -4 4 -6 -10 -35 -30
-64 -42 -61 -50 -70 -40 -44 6 16 4 17 -9 6 -12 -10 -13 -15 -4 -21 8 -5 6
-13 -10 -30 -11 -12 -21 -26 -21 -30 0 -4 -6 -14 -13 -21 -7 -7 -27 -38 -45
-68 -27 -45 -28 -50 -7 -25 14 17 42 55 62 85 21 30 40 57 44 60 3 3 14 21 25
40 10 19 22 37 25 40 10 8 60 90 55 90 -3 0 -8 -5 -11 -10z"/>
<path d="M4360 12200 c0 -5 5 -10 10 -10 6 0 10 5 10 10 0 6 -4 10 -10 10 -5
0 -10 -4 -10 -10z"/>
<path d="M4302 12120 c-19 -30 -14 -38 8 -11 11 13 20 18 20 12 0 -6 5 -11 11
-11 8 0 8 5 -1 15 -16 20 -23 19 -38 -5z"/>
<path d="M4460 12086 c0 -8 4 -17 9 -20 5 -4 7 3 4 14 -6 23 -13 26 -13 6z"/>
<path d="M4255 12044 c-20 -25 -22 -32 -8 -24 15 10 48 60 38 60 -1 0 -15 -16
-30 -36z"/>
<path d="M4185 11949 c-4 -6 -5 -12 -2 -15 2 -3 7 2 10 11 7 17 1 20 -8 4z"/>
<path d="M4170 11905 c0 -8 5 -15 10 -15 6 0 10 7 10 15 0 8 -4 15 -10 15 -5
0 -10 -7 -10 -15z"/>
<path d="M4396 11864 c-9 -24 -2 -26 12 -4 7 11 8 20 3 20 -5 0 -12 -7 -15
-16z"/>
<path d="M4361 11812 c-17 -31 -13 -40 5 -14 9 13 14 26 11 29 -3 2 -10 -4
-16 -15z"/>
<path d="M4320 11739 c0 -5 5 -7 10 -4 6 3 10 8 10 11 0 2 -4 4 -10 4 -5 0
-10 -5 -10 -11z"/>
<path d="M4058 11445 c2 -25 7 -45 11 -45 3 0 5 20 3 45 -2 25 -7 45 -11 45
-3 0 -5 -20 -3 -45z"/>
<path d="M4294 11358 c4 -23 11 -45 16 -48 10 -6 25 -60 22 -77 -2 -8 3 -10
13 -7 10 4 12 10 6 18 -5 6 -19 44 -31 84 -24 80 -36 94 -26 30z"/>
<path d="M4070 11384 c0 -29 34 -143 41 -138 5 3 4 14 -2 25 -6 12 -8 23 -5
26 3 4 2 11 -3 17 -6 7 -12 24 -15 40 -5 28 -16 48 -16 30z"/>
<path d="M4290 11269 c0 -5 5 -7 10 -4 6 3 10 8 10 11 0 2 -4 4 -10 4 -5 0
-10 -5 -10 -11z"/>
<path d="M4111 11225 c1 -22 16 -48 22 -38 3 5 0 19 -8 29 -8 10 -14 15 -14 9z"/>
<path d="M4353 11190 c0 -16 4 -27 9 -24 4 3 13 -7 18 -22 6 -15 13 -25 15
-22 5 5 -32 98 -39 98 -1 0 -3 -13 -3 -30z"/>
<path d="M4135 11153 c4 -10 11 -29 15 -43 18 -57 117 -270 126 -270 3 0 2 4
-1 10 -7 11 -16 47 -17 67 -1 7 -7 14 -15 17 -7 3 -13 17 -13 31 0 14 -3 25
-8 25 -4 0 -12 16 -18 35 -6 19 -7 35 -3 35 5 0 9 4 9 10 0 5 -6 7 -14 4 -16
-6 -31 29 -20 47 4 8 3 9 -4 5 -8 -5 -12 0 -12 12 0 11 -7 23 -16 26 -12 5
-15 2 -9 -11z"/>
<path d="M4176 11153 c-6 -14 -5 -15 5 -6 7 7 10 15 7 18 -3 3 -9 -2 -12 -12z"/>
<path d="M6030 10976 c0 -8 4 -17 9 -20 5 -4 7 3 4 14 -6 23 -13 26 -13 6z"/>
<path d="M4510 10876 c0 -8 4 -17 9 -20 5 -4 7 3 4 14 -6 23 -13 26 -13 6z"/>
<path d="M4362 10668 c7 -15 15 -23 17 -17 2 6 -4 18 -13 27 -15 15 -15 15 -4
-10z"/>
<path d="M4616 10677 c3 -10 9 -15 12 -12 3 3 0 11 -7 18 -10 9 -11 8 -5 -6z"/>
<path d="M4390 10613 c0 -5 10 -19 21 -33 l20 -25 -16 33 c-15 30 -25 41 -25
25z"/>
<path d="M4623 10585 c-3 -9 -3 -18 -1 -21 3 -3 8 4 11 16 6 23 -1 27 -10 5z"/>
<path d="M4678 10552 c-3 -11 0 -19 7 -19 7 0 10 8 7 19 -2 10 -6 18 -7 18 -1
0 -5 -8 -7 -18z"/>
<path d="M4690 10509 c0 -5 5 -7 10 -4 6 3 10 -1 10 -10 0 -9 -4 -13 -10 -10
-13 8 -13 -8 1 -38 9 -19 7 -31 -5 -55 -13 -25 -13 -31 -2 -35 9 -4 14 2 15
16 1 33 8 70 15 89 4 9 3 26 -4 37 -11 22 -30 28 -30 10z"/>
<path d="M4476 10455 c4 -8 8 -15 10 -15 2 0 4 7 4 15 0 8 -4 15 -10 15 -5 0
-7 -7 -4 -15z"/>
<path d="M4496 10415 c4 -8 10 -15 15 -15 4 0 6 7 3 15 -4 8 -10 15 -15 15 -4
0 -6 -7 -3 -15z"/>
<path d="M4550 10318 c22 -40 54 -101 72 -135 17 -35 34 -61 36 -59 6 7 -22
79 -36 95 -11 11 -11 15 0 22 10 7 10 11 0 21 -9 9 -12 9 -12 -2 -1 -11 -3
-10 -11 3 -6 9 -7 27 -4 40 5 16 4 18 -3 8 -8 -11 -11 -9 -17 8 -3 11 -4 24
-2 28 2 5 -5 17 -16 28 l-20 20 12 -22 c7 -14 8 -23 2 -23 -5 0 -13 9 -16 20
-3 11 -10 20 -15 20 -6 0 8 -33 30 -72z"/>
<path d="M13492 14790 c0 -14 2 -19 5 -12 2 6 2 18 0 25 -3 6 -5 1 -5 -13z"/>
<path d="M13591 14401 c12 -16 18 -34 15 -40 -4 -6 -1 -9 7 -5 7 2 31 -11 52
-31 22 -19 44 -35 49 -35 10 0 -12 22 -80 81 -11 9 -26 26 -34 37 -8 12 -18
22 -23 22 -4 0 2 -13 14 -29z"/>
<path d="M13730 14280 c0 -6 7 -10 15 -10 8 0 15 2 15 4 0 2 -7 6 -15 10 -8 3
-15 1 -15 -4z"/>
<path d="M13825 14230 c3 -5 8 -10 11 -10 2 0 4 5 4 10 0 6 -5 10 -11 10 -5 0
-7 -4 -4 -10z"/>
<path d="M13898 14203 c7 -3 16 -2 19 1 4 3 -2 6 -13 5 -11 0 -14 -3 -6 -6z"/>
<path d="M13938 14193 c7 -3 16 -2 19 1 4 3 -2 6 -13 5 -11 0 -14 -3 -6 -6z"/>
<path d="M14075 14190 c-49 -3 -79 -8 -65 -9 44 -6 149 -1 172 9 26 10 37 10
-107 0z"/>
<path d="M11018 8167 c-26 -31 -31 -53 -6 -25 36 39 50 58 42 58 -5 0 -21 -15
-36 -33z"/>
<path d="M10970 8109 c0 -5 5 -7 10 -4 6 3 10 8 10 11 0 2 -4 4 -10 4 -5 0
-10 -5 -10 -11z"/>
<path d="M10940 8085 c-8 -9 -8 -15 -2 -15 12 0 26 19 19 26 -2 2 -10 -2 -17
-11z"/>
<path d="M11220 8070 c-9 -6 -10 -10 -3 -10 6 0 15 5 18 10 8 12 4 12 -15 0z"/>
<path d="M10906 8044 c-5 -14 -4 -15 9 -4 17 14 19 20 6 20 -5 0 -12 -7 -15
-16z"/>
<path d="M10815 7957 c-86 -87 -67 -74 62 40 13 11 20 23 16 26 -4 2 -39 -27
-78 -66z"/>
<path d="M11166 8009 c-23 -27 -15 -35 9 -9 10 11 16 22 14 25 -3 2 -13 -5
-23 -16z"/>
<path d="M11115 7950 c3 -5 8 -10 11 -10 2 0 4 5 4 10 0 6 -5 10 -11 10 -5 0
-7 -4 -4 -10z"/>
<path d="M11087 7933 c-4 -3 -7 -11 -7 -17 0 -6 5 -5 12 2 6 6 9 14 7 17 -3 3
-9 2 -12 -2z"/>
<path d="M11020 7856 c-66 -63 -83 -87 -26 -38 43 37 84 83 74 82 -2 0 -23
-20 -48 -44z"/>
<path d="M10716 7864 c-5 -14 -4 -15 9 -4 17 14 19 20 6 20 -5 0 -12 -7 -15
-16z"/>
<path d="M10920 7759 c0 -5 5 -7 10 -4 6 3 10 8 10 11 0 2 -4 4 -10 4 -5 0
-10 -5 -10 -11z"/>
<path d="M10521 7699 c-31 -25 -23 -33 9 -9 14 10 23 21 20 23 -3 3 -16 -3
-29 -14z"/>
<path d="M10820 7675 c-11 -13 -10 -14 4 -9 9 3 16 10 16 15 0 13 -6 11 -20
-6z"/>
<path d="M10469 7656 c-51 -37 -99 -80 -99 -89 0 -5 26 12 58 39 31 26 59 49
61 51 2 2 2 5 0 7 -2 2 -11 -1 -20 -8z"/>
<path d="M10720 7579 c0 -5 5 -7 10 -4 6 3 10 8 10 11 0 2 -4 4 -10 4 -5 0
-10 -5 -10 -11z"/>
<path d="M10329 7542 c-32 -21 -63 -52 -58 -57 2 -2 24 14 49 36 48 41 52 50
9 21z"/>
<path d="M10645 7519 c-4 -6 -5 -12 -2 -15 2 -3 7 2 10 11 7 17 1 20 -8 4z"/>
<path d="M10568 7462 c-25 -21 -61 -48 -78 -62 -17 -14 -39 -31 -48 -37 -8 -7
-13 -16 -9 -19 3 -3 16 4 29 16 13 12 48 40 78 63 65 49 84 67 79 72 -2 2 -25
-13 -51 -33z"/>
<path d="M10235 7469 c-11 -17 1 -21 15 -4 8 9 8 15 2 15 -6 0 -14 -5 -17 -11z"/>
<path d="M10375 7308 c-18 -17 -23 -26 -12 -22 9 3 17 10 17 16 0 5 3 7 8 5 4
-3 13 1 19 9 26 27 -3 20 -32 -8z"/>
<path d="M10015 7290 c-3 -5 -1 -10 4 -10 6 0 11 5 11 10 0 6 -2 10 -4 10 -3
0 -8 -4 -11 -10z"/>
<path d="M9980 7265 c-7 -9 -8 -15 -2 -15 5 0 12 7 16 15 3 8 4 15 2 15 -2 0
-9 -7 -16 -15z"/>
<path d="M9930 7229 c-14 -11 -38 -30 -54 -42 -49 -38 -137 -117 -129 -117 8
0 139 104 168 134 9 9 24 20 33 25 9 5 15 12 12 14 -3 3 -16 -4 -30 -14z"/>
<path d="M10286 7235 c-11 -8 -15 -15 -9 -15 6 0 16 7 23 15 16 19 11 19 -14
0z"/>
<path d="M10234 7194 c-18 -14 -18 -15 4 -4 12 6 22 13 22 15 0 8 -5 6 -26
-11z"/>
<path d="M10065 7120 c-3 -5 -1 -10 4 -10 6 0 11 5 11 10 0 6 -2 10 -4 10 -3
0 -8 -4 -11 -10z"/>
<path d="M10120 7115 c-14 -16 -10 -18 14 -9 9 3 16 10 16 15 0 14 -16 11 -30
-6z"/>
<path d="M10040 7090 c20 -13 33 -13 25 0 -3 6 -14 10 -23 10 -15 0 -15 -2 -2
-10z"/>
<path d="M10060 7067 c-14 -13 -32 -27 -41 -33 -9 -5 -47 -38 -85 -73 l-69
-64 55 39 c50 35 145 110 178 142 11 10 11 12 0 12 -7 0 -24 -10 -38 -23z"/>
<path d="M9916 7003 c-6 -14 -5 -15 5 -6 7 7 10 15 7 18 -3 3 -9 -2 -12 -12z"/>
<path d="M7167 6850 c3 -11 10 -23 15 -26 11 -7 28 14 27 31 0 6 -3 4 -6 -2
-7 -18 -23 -16 -23 2 0 8 -4 15 -9 15 -5 0 -7 -9 -4 -20z"/>
<path d="M7210 6808 c0 -5 -4 -6 -10 -3 -6 3 -7 -1 -4 -9 3 -9 10 -16 16 -16
5 0 6 -4 3 -10 -3 -5 -1 -10 5 -10 7 0 9 -7 6 -16 -5 -12 -2 -15 9 -10 11 4
14 2 9 -6 -4 -6 0 -16 8 -22 8 -6 17 -18 21 -26 4 -12 6 -12 6 2 1 9 -3 20 -9
23 -5 3 -10 15 -10 26 0 10 -4 19 -9 19 -15 0 -25 42 -11 50 8 5 5 9 -9 13
-12 3 -21 1 -21 -5z"/>
<path d="M7255 6770 c3 -5 8 -10 11 -10 2 0 4 5 4 10 0 6 -5 10 -11 10 -5 0
-7 -4 -4 -10z"/>
<path d="M7480 6673 c1 -18 36 -68 49 -71 12 -3 12 -1 0 15 -8 10 -18 21 -22
24 -5 3 -8 9 -8 13 3 18 0 26 -9 26 -5 0 -10 -3 -10 -7z"/>
<path d="M7290 6655 c0 -8 4 -15 10 -15 5 0 7 7 4 15 -4 8 -8 15 -10 15 -2 0
-4 -7 -4 -15z"/>
<path d="M7537 6560 c9 -16 21 -30 25 -30 4 0 8 -6 8 -12 0 -14 39 -68 40 -55
0 4 -11 25 -25 47 -14 22 -25 42 -25 46 0 7 -27 34 -35 34 -3 0 2 -13 12 -30z"/>
<path d="M7394 6477 c0 -12 8 -28 19 -36 10 -7 22 -23 27 -35 6 -14 9 -16 9
-5 1 9 -9 27 -22 41 -13 14 -21 30 -20 35 2 6 0 13 -4 16 -5 3 -9 -4 -9 -16z"/>
<path d="M8902 6105 c0 -16 2 -22 5 -12 2 9 2 23 0 30 -3 6 -5 -1 -5 -18z"/>
</g>
</svg>
